<svg width="24" height="24" viewBox="0 0 24 24" fill="none" xmlns="http://www.w3.org/2000/svg">
<path d="M16.9396 12C16.9448 15.0305 16.3542 18.0324 15.2015 20.835C15.1455 20.9733 15.0497 21.0917 14.9261 21.1752C14.8025 21.2587 14.6568 21.3035 14.5077 21.3038C14.4113 21.3028 14.3158 21.2838 14.2265 21.2475C14.1352 21.2101 14.0523 21.155 13.9824 21.0855C13.9124 21.016 13.8569 20.9334 13.8189 20.8424C13.781 20.7514 13.7613 20.6538 13.7611 20.5552C13.7609 20.4566 13.7801 20.359 13.8177 20.2678C14.8952 17.6449 15.4462 14.8356 15.4396 12C15.4396 11.8011 15.5186 11.6103 15.6593 11.4697C15.7999 11.329 15.9907 11.25 16.1896 11.25C16.3885 11.25 16.5793 11.329 16.7199 11.4697C16.8606 11.6103 16.9396 11.8011 16.9396 12ZM11.6896 8.25001C12.217 8.25038 12.7385 8.36185 13.22 8.57717C13.7016 8.79249 14.1323 9.10682 14.4843 9.49969C14.5494 9.57487 14.6289 9.63633 14.7181 9.6805C14.8072 9.72466 14.9043 9.75064 15.0036 9.75692C15.1029 9.76321 15.2024 9.74968 15.2964 9.71711C15.3905 9.68455 15.4771 9.6336 15.5512 9.56724C15.6253 9.50088 15.6855 9.42044 15.7283 9.33059C15.771 9.24074 15.7954 9.14329 15.8001 9.04391C15.8048 8.94452 15.7897 8.8452 15.7557 8.75171C15.7216 8.65823 15.6693 8.57245 15.6018 8.49938C14.8928 7.70718 13.9601 7.14887 12.9269 6.89832C11.8938 6.64776 10.8089 6.71676 9.81581 7.09619C8.82272 7.47562 7.96823 8.1476 7.36536 9.02324C6.76249 9.89888 6.43967 10.9369 6.43958 12C6.43948 14.1596 5.8911 16.2837 4.84583 18.1734C4.79806 18.2596 4.76774 18.3544 4.75658 18.4523C4.74543 18.5502 4.75367 18.6493 4.78083 18.744C4.80799 18.8387 4.85354 18.9272 4.91488 19.0043C4.97622 19.0814 5.05215 19.1457 5.13833 19.1934C5.22451 19.2412 5.31926 19.2715 5.41716 19.2827C5.51506 19.2938 5.61419 19.2856 5.70891 19.2584C5.80363 19.2313 5.89206 19.1857 5.96918 19.1244C6.04629 19.0631 6.11056 18.9871 6.15833 18.9009C7.32649 16.7884 7.93938 14.414 7.93958 12C7.93958 11.0054 8.33467 10.0516 9.03793 9.34836C9.74119 8.6451 10.695 8.25001 11.6896 8.25001ZM11.6896 2.25001C10.5825 2.24867 9.48322 2.43637 8.43927 2.80501C8.25508 2.87387 8.1053 3.01232 8.02219 3.19055C7.93909 3.36877 7.9293 3.5725 7.99494 3.75786C8.06058 3.94323 8.1964 4.0954 8.37314 4.18161C8.54988 4.26781 8.75341 4.28115 8.93989 4.21876C10.1845 3.77991 11.5161 3.64586 12.8232 3.82785C14.1303 4.00983 15.3747 4.50256 16.4521 5.2647C17.5295 6.02684 18.4084 7.03618 19.0152 8.20809C19.622 9.38 19.939 10.6803 19.9396 12C19.9405 13.9628 19.7223 15.9197 19.289 17.8341C19.2449 18.0276 19.2794 18.2307 19.3848 18.3989C19.4903 18.5671 19.6581 18.6866 19.8515 18.7313C19.9062 18.7439 19.9622 18.7502 20.0183 18.75C20.1884 18.75 20.3534 18.6921 20.4862 18.586C20.6191 18.4799 20.712 18.3318 20.7496 18.1659C21.2077 16.1426 21.4391 14.0746 21.4396 12C21.4369 9.41498 20.4087 6.93662 18.5809 5.10873C16.753 3.28084 14.2746 2.25274 11.6896 2.25001ZM6.19021 5.85188C6.26364 5.7862 6.32343 5.7067 6.36614 5.61791C6.40885 5.52913 6.43366 5.4328 6.43914 5.33443C6.44463 5.23605 6.43068 5.13757 6.3981 5.04458C6.36552 4.9516 6.31495 4.86594 6.24927 4.79251C6.18359 4.71907 6.10408 4.65929 6.0153 4.61658C5.92651 4.57386 5.83019 4.54906 5.73181 4.54357C5.63344 4.53809 5.53495 4.55203 5.44197 4.58461C5.34899 4.61719 5.26333 4.66776 5.18989 4.73344C4.16818 5.64847 3.35069 6.76847 2.79067 8.02049C2.23065 9.2725 1.94066 10.6285 1.93958 12C1.94168 13.1865 1.68577 14.3592 1.18958 15.4369C1.14846 15.5264 1.12537 15.6231 1.12163 15.7215C1.1179 15.82 1.13358 15.9182 1.16779 16.0105C1.23689 16.1971 1.37726 16.3485 1.55802 16.4316C1.73878 16.5146 1.94513 16.5225 2.13167 16.4534C2.31821 16.3843 2.46966 16.2439 2.55271 16.0631C3.13945 14.7891 3.44207 13.4027 3.43958 12C3.44057 10.8395 3.68603 9.69224 4.15996 8.63293C4.63389 7.57362 5.32565 6.62603 6.19021 5.85188ZM10.3696 18.8194C10.2801 18.7783 10.1834 18.7552 10.0849 18.7514C9.98649 18.7477 9.88829 18.7634 9.79592 18.7976C9.70356 18.8318 9.61883 18.8839 9.54659 18.9508C9.47435 19.0178 9.41601 19.0983 9.37489 19.1878C9.19489 19.5816 8.99989 19.9744 8.78521 20.3541C8.73725 20.4403 8.70677 20.5351 8.69552 20.6331C8.68427 20.7311 8.69246 20.8304 8.71963 20.9252C8.7468 21.0201 8.79242 21.1086 8.85386 21.1858C8.91531 21.263 8.99137 21.3273 9.07771 21.375C9.18858 21.4369 9.31353 21.4692 9.44052 21.4688C9.57443 21.4688 9.70591 21.433 9.82131 21.3651C9.93671 21.2972 10.0318 21.1996 10.0968 21.0825C10.3255 20.6691 10.5411 20.2388 10.738 19.815C10.7793 19.7255 10.8025 19.6286 10.8063 19.5301C10.8101 19.4316 10.7945 19.3333 10.7603 19.2408C10.726 19.1483 10.6739 19.0635 10.6069 18.9912C10.5398 18.9189 10.4592 18.8605 10.3696 18.8194ZM11.6896 11.25C11.4907 11.25 11.2999 11.329 11.1593 11.4697C11.0186 11.6103 10.9396 11.8011 10.9396 12C10.9401 13.4546 10.7578 14.9034 10.3968 16.3125C10.3472 16.5051 10.3762 16.7094 10.4773 16.8807C10.5783 17.0519 10.7433 17.176 10.9358 17.2256C10.9971 17.2412 11.0601 17.2491 11.1233 17.2491C11.2895 17.2489 11.4509 17.1936 11.5823 17.0918C11.7136 16.99 11.8074 16.8475 11.849 16.6866C12.242 15.1551 12.4405 13.5802 12.4396 11.9991C12.4393 11.8003 12.3602 11.6098 12.2196 11.4693C12.079 11.3289 11.8883 11.25 11.6896 11.25Z" fill="white"/>
</svg>
