<svg width="24" height="24" viewBox="0 0 24 24" fill="none" xmlns="http://www.w3.org/2000/svg">
<path d="M4.19141 5.25V18.75C4.19141 18.9489 4.11239 19.1397 3.97174 19.2803C3.83108 19.421 3.64032 19.5 3.44141 19.5C3.24249 19.5 3.05173 19.421 2.91108 19.2803C2.77042 19.1397 2.69141 18.9489 2.69141 18.75V5.25C2.69141 5.05109 2.77042 4.86032 2.91108 4.71967C3.05173 4.57902 3.24249 4.5 3.44141 4.5C3.64032 4.5 3.83108 4.57902 3.97174 4.71967C4.11239 4.86032 4.19141 5.05109 4.19141 5.25ZM12.0664 10.3594L10.1914 10.9688V9C10.1914 8.80109 10.1124 8.61032 9.97174 8.46967C9.83108 8.32902 9.64032 8.25 9.44141 8.25C9.24249 8.25 9.05173 8.32902 8.91108 8.46967C8.77042 8.61032 8.69141 8.80109 8.69141 9V10.9688L6.81641 10.3594C6.62719 10.2972 6.42103 10.3128 6.24328 10.4026C6.06553 10.4924 5.93075 10.6492 5.86859 10.8384C5.80643 11.0277 5.82199 11.2338 5.91183 11.4116C6.00167 11.5893 6.15844 11.7241 6.34766 11.7863L8.22266 12.3947L7.06578 13.9884C7.00464 14.0679 6.96005 14.1588 6.93464 14.2557C6.90922 14.3527 6.90351 14.4538 6.91782 14.553C6.93214 14.6522 6.9662 14.7475 7.01798 14.8334C7.06977 14.9192 7.13824 14.9938 7.21934 15.0527C7.30044 15.1116 7.39253 15.1536 7.49016 15.1764C7.58779 15.1991 7.68899 15.202 7.78776 15.1849C7.88654 15.1679 7.9809 15.1312 8.06526 15.077C8.14961 15.0229 8.22226 14.9524 8.27891 14.8697L9.43578 13.2759L10.5927 14.8697C10.6493 14.9524 10.7219 15.0229 10.8063 15.077C10.8907 15.1312 10.985 15.1679 11.0838 15.1849C11.1826 15.202 11.2838 15.1991 11.3814 15.1764C11.479 15.1536 11.5711 15.1116 11.6522 15.0527C11.7333 14.9938 11.8018 14.9192 11.8536 14.8334C11.9054 14.7475 11.9394 14.6522 11.9537 14.553C11.9681 14.4538 11.9623 14.3527 11.9369 14.2557C11.9115 14.1588 11.8669 14.0679 11.8058 13.9884L10.6489 12.3947L12.5239 11.7863C12.7048 11.719 12.8527 11.5846 12.9371 11.411C13.0214 11.2375 13.0355 11.0381 12.9766 10.8543C12.9177 10.6706 12.7902 10.5166 12.6207 10.4244C12.4512 10.3322 12.2527 10.3089 12.0664 10.3594ZM22.0039 10.8412C21.9424 10.6538 21.8096 10.498 21.6341 10.4078C21.4586 10.3176 21.2546 10.3002 21.0664 10.3594L19.1914 10.9688V9C19.1914 8.80109 19.1124 8.61032 18.9717 8.46967C18.8311 8.32902 18.6403 8.25 18.4414 8.25C18.2425 8.25 18.0517 8.32902 17.9111 8.46967C17.7704 8.61032 17.6914 8.80109 17.6914 9V10.9688L15.8164 10.3603C15.7227 10.3298 15.6239 10.3181 15.5257 10.3258C15.4275 10.3335 15.3318 10.3605 15.244 10.4052C15.1562 10.4499 15.078 10.5115 15.014 10.5864C14.95 10.6613 14.9014 10.748 14.8709 10.8417C14.8405 10.9354 14.8287 11.0342 14.8365 11.1324C14.8442 11.2306 14.8711 11.3264 14.9158 11.4142C14.9605 11.502 15.0221 11.5801 15.097 11.6441C15.1719 11.7081 15.2587 11.7567 15.3523 11.7872L17.2273 12.3956L16.0705 13.9894C16.0093 14.0688 15.9647 14.1597 15.9393 14.2567C15.9139 14.3536 15.9082 14.4547 15.9225 14.5539C15.9368 14.6531 15.9709 14.7485 16.0227 14.8343C16.0745 14.9201 16.1429 14.9947 16.224 15.0536C16.3051 15.1125 16.3972 15.1546 16.4948 15.1773C16.5925 15.2 16.6937 15.2029 16.7925 15.1859C16.8912 15.1688 16.9856 15.1321 17.0699 15.078C17.1543 15.0238 17.2269 14.9533 17.2836 14.8706L18.4405 13.2769L19.5973 14.8706C19.654 14.9533 19.7266 15.0238 19.811 15.078C19.8954 15.1321 19.9897 15.1688 20.0885 15.1859C20.1873 15.2029 20.2885 15.2 20.3861 15.1773C20.4837 15.1546 20.5758 15.1125 20.6569 15.0536C20.738 14.9947 20.8065 14.9201 20.8583 14.8343C20.9101 14.7485 20.9441 14.6531 20.9584 14.5539C20.9727 14.4547 20.967 14.3536 20.9416 14.2567C20.9162 14.1597 20.8716 14.0688 20.8105 13.9894L19.6536 12.3956L21.5286 11.7872C21.7168 11.7245 21.8725 11.5897 21.9616 11.4124C22.0507 11.2351 22.0659 11.0297 22.0039 10.8412Z" fill="white"/>
</svg>
