<svg width="85" height="41" viewBox="0 0 85 41" fill="none" xmlns="http://www.w3.org/2000/svg">
<path d="M0.669648 34.7018H1.29334L0.702475 38.0269C0.62041 38.5179 0.636824 38.8973 0.751715 39.1427C0.866606 39.3882 1.09639 39.5221 1.42465 39.5221C1.75291 39.5221 2.01552 39.4105 2.22888 39.1427C2.44225 38.8973 2.58997 38.5179 2.67204 38.0269L3.2629 34.7018H3.90301L3.29573 38.0939C3.16442 38.8303 2.93464 39.3882 2.60638 39.7453C2.27812 40.1247 1.83497 40.3032 1.29334 40.3032C0.751715 40.3032 0.374216 40.1247 0.17726 39.7453C-0.0196962 39.3882 -0.0525213 38.8303 0.0787827 38.0939L0.669648 34.7018Z" fill="white"/>
<path d="M3.80859 40.194L4.80979 34.5033L6.71369 37.8508C6.76293 37.94 6.81217 38.0516 6.86141 38.1632C6.91065 38.2748 6.95989 38.3863 7.00913 38.5202L7.68206 34.7265H8.27293L7.27174 40.3948L5.31859 36.9804C5.26935 36.8912 5.22011 36.8019 5.17087 36.6903C5.12163 36.601 5.08881 36.4895 5.05598 36.3779L4.38305 40.194H3.80859Z" fill="white"/>
<path d="M8.21875 40.1907L9.18712 34.7231H9.82722L8.85886 40.1907H8.21875Z" fill="white"/>
<path d="M9.7832 40.1914L10.7516 34.7239H12.9509L12.8196 35.4826H11.2604L11.0142 36.8439H12.5734L12.4421 37.625H10.8993L10.4397 40.1914H9.7832Z" fill="white"/>
<path d="M12.668 40.1907L13.6363 34.7231H14.2764L13.3081 40.1907H12.668Z" fill="white"/>
<path d="M14.209 40.1907L15.1774 34.7231H17.3603L17.229 35.4819H15.6862L15.44 36.8432H16.9992L16.8515 37.6243H15.2922L14.9804 39.3873H16.5396L16.3919 40.1907H14.209Z" fill="white"/>
<path d="M17.1465 40.1914L18.1149 34.7239H18.9683C19.5264 34.7239 19.9203 34.7462 20.1336 34.8355C20.347 34.9247 20.5276 35.0363 20.6589 35.2372C20.8394 35.4826 20.9707 35.7951 21.02 36.1744C21.0692 36.5538 21.0528 36.9778 20.9707 37.4688C20.8886 37.9598 20.7573 38.3838 20.5604 38.7631C20.3798 39.1425 20.1501 39.4549 19.8875 39.7004C19.6905 39.879 19.4607 40.0129 19.2309 40.1021C19.0012 40.1691 18.6565 40.2137 18.1805 40.2137H18.0164H17.1465V40.1914ZM17.9179 39.3657H18.4595C18.755 39.3657 18.9847 39.3434 19.1325 39.2764C19.2802 39.2318 19.4279 39.1202 19.5592 39.0086C19.7397 38.8301 19.8875 38.6069 20.0023 38.3391C20.1172 38.0713 20.2157 37.7589 20.2814 37.4242C20.347 37.0671 20.3634 36.777 20.3306 36.5092C20.2978 36.2414 20.2321 36.0182 20.1172 35.8397C20.0352 35.7058 19.9039 35.6165 19.7726 35.5719C19.6248 35.5273 19.3951 35.4826 19.0668 35.4826H18.837H18.6072L17.9179 39.3657Z" fill="white"/>
<path d="M23.8965 37.7359L23.4698 40.1907H22.8789L23.8473 34.7231H24.8156C25.0947 34.7231 25.308 34.7455 25.4393 34.7901C25.5706 34.8347 25.6691 34.9017 25.7512 35.0133C25.8497 35.1472 25.9153 35.3034 25.9481 35.5265C25.981 35.7497 25.981 35.9729 25.9317 36.2407C25.8825 36.5085 25.8004 36.7316 25.7019 36.9548C25.587 37.1779 25.4722 37.3342 25.3244 37.4681C25.2096 37.5573 25.0782 37.6466 24.9305 37.6912C24.7828 37.7359 24.5694 37.7582 24.2904 37.7582H24.1591H23.8965V37.7359ZM24.0606 36.9994H24.2248C24.5859 36.9994 24.8321 36.9548 24.9634 36.8432C25.0947 36.7316 25.1931 36.5531 25.2424 36.2853C25.2916 35.9952 25.2588 35.7943 25.1603 35.6604C25.0618 35.5489 24.8321 35.4819 24.5038 35.4819H24.3397L24.0606 36.9994Z" fill="white"/>
<path d="M28.0821 40.194L27.8852 38.788H26.326L25.6202 40.194H24.9473L27.836 34.5033L28.7387 40.194H28.0821ZM26.687 38.0293H27.7867L27.6062 36.7796C27.5898 36.6903 27.5898 36.601 27.5733 36.5118C27.5733 36.4002 27.5569 36.2886 27.5569 36.1547C27.5241 36.2663 27.4749 36.4002 27.4256 36.4895C27.3928 36.5787 27.3436 36.6903 27.2943 36.7796L26.687 38.0293Z" fill="white"/>
<path d="M29.6501 40.1907L30.0933 37.6912L29.2891 34.7231H29.962L30.4544 36.5754C30.4544 36.62 30.4872 36.687 30.4872 36.7539C30.5036 36.8432 30.52 36.9102 30.5364 36.9994C30.5857 36.9102 30.6185 36.8209 30.6677 36.7539C30.7006 36.6647 30.7498 36.5977 30.7826 36.5531L31.948 34.7231H32.5881L30.717 37.6912L30.2738 40.1907H29.6501Z" fill="white"/>
<path d="M35.7446 37.4725C35.7446 37.4279 35.7446 37.3163 35.7775 37.1155C35.7939 36.9593 35.8103 36.8254 35.8103 36.7138C35.7775 36.8477 35.7282 36.9593 35.679 37.0932C35.6297 37.2048 35.5641 37.3386 35.4984 37.4725L33.9556 40.396L33.4468 37.4279C33.4304 37.3163 33.414 37.1824 33.3976 37.0709C33.3812 36.9593 33.3812 36.8477 33.3812 36.7361C33.3483 36.8477 33.3319 36.9816 33.2991 37.0932C33.2663 37.2271 33.2334 37.361 33.1842 37.4949L32.2979 40.1951H31.707L33.6438 34.4822L34.1854 37.9412C34.2018 37.9858 34.2018 38.0974 34.2182 38.209C34.2346 38.3429 34.251 38.4991 34.2675 38.6776C34.3331 38.5214 34.4316 38.3206 34.5465 38.0751C34.5793 38.0081 34.5957 37.9635 34.6121 37.9189L36.3519 34.4598L36.2863 40.1728H35.6954L35.7446 37.4725Z" fill="white"/>
<path d="M36.8125 40.1907L37.7809 34.7231H39.9802L39.8325 35.4596H38.2897L38.0435 36.8209H39.6027L39.4714 37.602H37.9122L37.6003 39.365H39.1596L39.0118 40.1683H36.8125V40.1907Z" fill="white"/>
<path d="M39.7129 40.194L40.7141 34.5033L42.618 37.8508C42.6672 37.94 42.7165 38.0516 42.7657 38.1632C42.8149 38.2748 42.8642 38.3863 42.9298 38.5202L43.6028 34.7265H44.1936L43.1924 40.3948L41.2557 36.9804C41.2065 36.8912 41.1572 36.8019 41.108 36.6903C41.0588 36.601 41.0259 36.4895 40.9931 36.3779L40.3202 40.194H39.7129Z" fill="white"/>
<path d="M46.2237 35.4605L45.3867 40.1916H44.7466L45.5836 35.4605H44.5332L44.6645 34.7018H47.3727L47.2414 35.4605H46.2237Z" fill="white"/>
<path d="M46.8848 39.0783L47.4428 38.7436C47.4428 38.989 47.5085 39.1676 47.6069 39.3015C47.7054 39.4354 47.8695 39.5023 48.0665 39.5023C48.2635 39.5023 48.4112 39.4354 48.5589 39.2792C48.6902 39.123 48.7887 38.9221 48.8379 38.6989C48.8872 38.3865 48.7558 38.0964 48.4112 37.8286C48.3619 37.784 48.3291 37.7617 48.2963 37.7393C47.9188 37.4492 47.6726 37.1814 47.5741 36.9359C47.4756 36.6905 47.4592 36.4004 47.5085 36.0656C47.5905 35.6193 47.7547 35.2622 48.0337 34.9721C48.2963 34.682 48.6081 34.5481 48.9528 34.5481C49.2482 34.5481 49.478 34.6374 49.6421 34.7936C49.8063 34.9498 49.9048 35.173 49.9212 35.4631L49.3631 35.8201C49.3139 35.6416 49.2482 35.53 49.1662 35.4407C49.0841 35.3738 48.9856 35.3292 48.8707 35.3292C48.7066 35.3292 48.5589 35.3961 48.4276 35.5077C48.3127 35.6193 48.2306 35.7978 48.1814 35.9987C48.1157 36.3334 48.2963 36.6458 48.6902 36.9136C48.723 36.9359 48.7394 36.9583 48.7558 36.9583C49.1005 37.2037 49.3303 37.4492 49.4288 37.6947C49.5273 37.9402 49.5601 38.2303 49.4944 38.5874C49.4124 39.1006 49.2154 39.5246 48.92 39.8371C48.641 40.1495 48.2963 40.2834 47.886 40.2834C47.5577 40.2834 47.2951 40.1718 47.1145 39.971C46.9668 39.7924 46.8848 39.48 46.8848 39.0783Z" fill="white"/>
<path d="M51.5918 40.1907L52.5602 34.7231H53.2003L52.2319 40.1907H51.5918Z" fill="white"/>
<path d="M53.1484 40.194L54.1496 34.5033L56.0535 37.8508C56.1028 37.94 56.152 38.0516 56.2013 38.1632C56.2505 38.2748 56.2997 38.3863 56.3654 38.5202L57.0383 34.7265H57.6292L56.6116 40.3948L54.6748 36.9804C54.6256 36.8912 54.5764 36.8019 54.5271 36.6903C54.4779 36.601 54.4451 36.4895 54.4122 36.3779L53.7393 40.194H53.1484Z" fill="white"/>
<path d="M59.6702 35.4605L58.8332 40.1916H58.193L59.0301 35.4605H57.9961L58.1274 34.7018H60.852L60.7207 35.4605H59.6702Z" fill="white"/>
<path d="M60.3613 40.1907L61.3297 34.7231H63.5126L63.3813 35.4819H61.8221L61.5759 36.8432H63.1187L62.9874 37.6243H61.4282L61.1163 39.3873H62.6592L62.5278 40.1907H60.3613Z" fill="white"/>
<path d="M64.3164 37.7359L63.8897 40.1907H63.2988L64.2672 34.7231H65.1535C65.4161 34.7231 65.6131 34.7455 65.7444 34.7901C65.8757 34.8347 65.9906 34.924 66.0726 35.0356C66.1711 35.1695 66.2368 35.3257 66.2696 35.5489C66.3024 35.7497 66.286 35.9952 66.2532 36.2407C66.1711 36.687 66.0398 37.0217 65.8428 37.2672C65.6459 37.5127 65.3997 37.6689 65.0878 37.7135L66.007 40.213H65.2848L64.4149 37.7582H64.3164V37.7359ZM64.4641 37.0441H64.579C64.9237 37.0441 65.1535 36.9994 65.2848 36.8878C65.4161 36.7763 65.4982 36.5754 65.5474 36.3076C65.5966 36.0175 65.5802 35.7943 65.4818 35.6604C65.3833 35.5489 65.1699 35.4819 64.8581 35.4819H64.7432L64.4641 37.0441Z" fill="white"/>
<path d="M66.3516 40.1914L67.3199 34.7239H69.5029L69.3716 35.4603H67.8123L67.5661 36.8216H69.1254L68.9941 37.6027H67.4348L66.9753 40.1691H66.3516V40.1914Z" fill="white"/>
<path d="M71.6388 40.194L71.4418 38.788H69.8826L69.1768 40.194H68.5039L71.409 34.5033L72.3117 40.194H71.6388ZM70.2437 38.0293H71.3434L71.1628 36.7796C71.1464 36.6903 71.1464 36.601 71.1464 36.5118C71.13 36.4002 71.13 36.2886 71.13 36.1547C71.0807 36.2663 71.0479 36.4002 70.9987 36.4895C70.9659 36.5787 70.9166 36.6903 70.8838 36.7796L70.2437 38.0293Z" fill="white"/>
<path d="M76.4644 36.0451C76.3166 35.8219 76.1525 35.6657 75.972 35.5764C75.7914 35.4648 75.5945 35.4202 75.3647 35.4202C74.9379 35.4202 74.544 35.6211 74.2158 36.0004C73.8711 36.3798 73.6577 36.8708 73.5428 37.4956C73.4444 38.0759 73.4772 38.5668 73.6741 38.9462C73.8711 39.3256 74.1665 39.5264 74.5604 39.5264C74.7902 39.5264 75.02 39.4818 75.2498 39.3479C75.4796 39.2363 75.7094 39.0578 75.9391 38.8346L75.7586 39.8389C75.5616 40.0174 75.3483 40.1513 75.1349 40.2182C74.9215 40.3075 74.6917 40.3521 74.462 40.3521C74.1665 40.3521 73.9039 40.2852 73.6577 40.1513C73.4279 40.0174 73.2474 39.8165 73.0997 39.5487C72.952 39.2809 72.8535 38.9908 72.8207 38.6338C72.7714 38.2767 72.7878 37.8973 72.8699 37.4956C72.9356 37.0939 73.0504 36.7146 73.2146 36.3575C73.3787 36.0004 73.5757 35.688 73.8219 35.4202C74.0681 35.1524 74.3307 34.9516 74.5933 34.8177C74.8723 34.6838 75.1513 34.6168 75.4467 34.6168C75.6765 34.6168 75.8899 34.6615 76.0869 34.7507C76.2838 34.84 76.4479 34.9962 76.6285 35.1747L76.4644 36.0451Z" fill="white"/>
<path d="M76.5078 40.1907L77.4762 34.7231H79.6591L79.5278 35.4819H77.985L77.7388 36.8432H79.298L79.1667 37.6243H77.6239L77.3121 39.3873H78.8713L78.7236 40.1907H76.5078Z" fill="white"/>
<path d="M64.9116 29.9486H60.5293L66.6349 0H71.0172L64.9116 29.9486Z" fill="white"/>
<path d="M62.6259 0.932371C62.314 0.374462 61.8545 0.0843506 61.2144 0.0843506H37.1037L35.9055 5.95356H40.2878H57.8333L56.5531 12.2245H39.024V12.2021H34.6417L30.998 30.0553H35.3803L37.8259 18.0714H57.5543C58.1616 18.0714 58.7524 17.7812 59.2941 17.2233C59.8357 16.6431 60.1968 15.9513 60.3609 15.1033L62.8064 3.11938C62.987 2.22672 62.9213 1.5126 62.6259 0.932371Z" fill="white"/>
<path d="M28.4545 28.0729C28.2083 29.2556 27.4205 30.0814 26.5178 30.0814H3.88428C3.277 30.0814 2.81743 29.7912 2.50559 29.2333C2.21015 28.6531 2.1445 27.9613 2.30863 27.1133L7.8234 0.0881348H12.2057L7.28177 24.2121H24.8437L29.7676 0.0881348H34.1498L28.4545 28.0729Z" fill="white"/>
<path d="M78.5548 0.048584L84.1189 15.0675L72.4492 30.0641L78.5548 0.048584Z" fill="#2B8B4B"/>
<path d="M74.6631 0.048584L80.2107 15.0675L68.541 30.0641L74.6631 0.048584Z" fill="#D9782D"/>
</svg>
