<svg width="176" height="85" viewBox="0 0 176 85" fill="none" xmlns="http://www.w3.org/2000/svg">
<path d="M1.39521 72.2953H2.69468L1.4636 79.2227C1.29262 80.2455 1.32682 81.0359 1.56619 81.5473C1.80557 82.0587 2.28432 82.3377 2.96825 82.3377C3.65217 82.3377 4.19932 82.1052 4.64387 81.5473C5.08842 81.0359 5.39619 80.2455 5.56717 79.2227L6.79824 72.2953H8.1319L6.86663 79.3622C6.59306 80.8964 6.11431 82.0587 5.43038 82.8026C4.74646 83.593 3.82316 83.9649 2.69468 83.9649C1.56619 83.9649 0.779677 83.593 0.36932 82.8026C-0.0410369 82.0587 -0.109428 80.8964 0.164143 79.3622L1.39521 72.2953Z" fill="#636466"/>
<path d="M7.92969 83.7378L10.0157 71.8822L13.9825 78.8561C14.085 79.0421 14.1876 79.2745 14.2902 79.507C14.3928 79.7394 14.4954 79.9719 14.598 80.2509L16 72.3471H17.2311L15.1451 84.1562L11.0758 77.0429C10.9732 76.8569 10.8706 76.6709 10.768 76.4385C10.6654 76.2525 10.597 76.02 10.5286 75.7876L9.12656 83.7378H7.92969Z" fill="#636466"/>
<path d="M17.1172 83.7308L19.1348 72.3401H20.4684L18.4508 83.7308H17.1172Z" fill="#636466"/>
<path d="M20.377 83.7314L22.3945 72.3407H26.9769L26.7033 73.9214H23.4546L22.9417 76.7575H26.1903L25.9168 78.3847H22.7023L21.7448 83.7314H20.377Z" fill="#636466"/>
<path d="M26.3906 83.7308L28.4082 72.3401H29.7419L27.7243 83.7308H26.3906Z" fill="#636466"/>
<path d="M29.6035 83.7308L31.6211 72.3401H36.1692L35.8957 73.9208H32.6812L32.1682 76.7569H35.4169L35.1091 78.3841H31.8605L31.2108 82.057H34.4594L34.1516 83.7308H29.6035Z" fill="#636466"/>
<path d="M35.7324 83.7314L37.75 72.3407H39.5282C40.6909 72.3407 41.5116 72.3872 41.9562 72.5732C42.4007 72.7591 42.7769 72.9916 43.0504 73.41C43.4266 73.9214 43.7002 74.5723 43.8028 75.3627C43.9054 76.1531 43.8712 77.0364 43.7002 78.0593C43.5292 79.0821 43.2556 79.9655 42.8453 80.7559C42.4691 81.5462 41.9904 82.1971 41.4432 82.7085C41.0329 83.0805 40.5541 83.3594 40.0754 83.5454C39.5966 83.6849 38.8785 83.7779 37.8868 83.7779H37.5448H35.7324V83.7314ZM37.3397 82.0112H38.4681C39.0837 82.0112 39.5624 81.9647 39.8702 81.8252C40.178 81.7322 40.4857 81.4997 40.7593 81.2673C41.1354 80.8953 41.4432 80.4304 41.6826 79.8725C41.922 79.3146 42.1271 78.6637 42.2639 77.9663C42.4007 77.2224 42.4349 76.618 42.3665 76.0601C42.2981 75.5022 42.1613 75.0373 41.922 74.6653C41.751 74.3864 41.4774 74.2004 41.2038 74.1074C40.8961 74.0144 40.4173 73.9214 39.7334 73.9214H39.2546H38.7759L37.3397 82.0112Z" fill="#636466"/>
<path d="M49.7881 78.6166L48.899 83.7308H47.668L49.6856 72.3401H51.7031C52.2845 72.3401 52.729 72.3866 53.0026 72.4796C53.2762 72.5726 53.4813 72.712 53.6523 72.9445C53.8575 73.2235 53.9943 73.5489 54.0627 74.0138C54.1311 74.4787 54.1311 74.9437 54.0285 75.5016C53.9259 76.0595 53.7549 76.5244 53.5497 76.9893C53.3104 77.4543 53.071 77.7797 52.7632 78.0587C52.5239 78.2446 52.2503 78.4306 51.9425 78.5236C51.6348 78.6166 51.1902 78.6631 50.6089 78.6631H50.3353H49.7881V78.6166ZM50.1301 77.0823H50.4721C51.2244 77.0823 51.7373 76.9893 52.0109 76.7569C52.2845 76.5244 52.4897 76.1525 52.5923 75.5946C52.6948 74.9902 52.6265 74.5717 52.4213 74.2928C52.2161 74.0603 51.7373 73.9208 51.0534 73.9208H50.7114L50.1301 77.0823Z" fill="#636466"/>
<path d="M58.512 83.7378L58.1016 80.8088H54.853L53.3825 83.7378H51.9805L57.999 71.8822L59.8798 83.7378H58.512ZM55.6053 79.228H57.8964L57.5203 76.6244C57.4861 76.4385 57.4861 76.2525 57.4519 76.0665C57.4519 75.8341 57.4177 75.6016 57.4177 75.3226C57.3493 75.5551 57.2467 75.8341 57.1441 76.02C57.0757 76.206 56.9731 76.4385 56.8706 76.6244L55.6053 79.228Z" fill="#636466"/>
<path d="M61.7757 83.7308L62.6991 78.5236L61.0234 72.3401H62.4255L63.4514 76.199C63.4514 76.292 63.5198 76.4314 63.5198 76.5709C63.554 76.7569 63.5882 76.8964 63.6224 77.0823C63.7249 76.8964 63.7933 76.7104 63.8959 76.5709C63.9643 76.3849 64.0669 76.2455 64.1353 76.1525L66.5632 72.3401H67.8969L63.9985 78.5236L63.0752 83.7308H61.7757Z" fill="#636466"/>
<path d="M74.465 78.0679C74.465 77.9749 74.465 77.7424 74.5334 77.324C74.5676 76.9985 74.6018 76.7196 74.6018 76.4871C74.5334 76.7661 74.4309 76.9985 74.3283 77.2775C74.2257 77.51 74.0889 77.7889 73.9521 78.0679L70.7376 84.1584L69.6776 77.9749C69.6434 77.7424 69.6092 77.4635 69.575 77.231C69.5408 76.9985 69.5408 76.7661 69.5408 76.5336C69.4724 76.7661 69.4382 77.045 69.3698 77.2775C69.3014 77.5565 69.233 77.8354 69.1304 78.1144L67.2838 83.74H66.0527L70.0879 71.8379L71.2164 79.0442C71.2506 79.1372 71.2506 79.3697 71.2848 79.6021C71.319 79.8811 71.3532 80.2065 71.3874 80.5785C71.5242 80.253 71.7293 79.8346 71.9687 79.3232C72.0371 79.1837 72.0713 79.0907 72.1055 78.9977L75.7303 71.7914L75.5935 83.6935H74.3625L74.465 78.0679Z" fill="#636466"/>
<path d="M76.6992 83.7308L78.7168 72.3401H83.2991L82.9914 73.8743H79.7769L79.2639 76.7104H82.5126L82.239 78.3376H78.9904L78.3406 82.0105H81.5893L81.2815 83.6843H76.6992V83.7308Z" fill="#636466"/>
<path d="M82.7441 83.7378L84.8301 71.8822L88.7969 78.8561C88.8995 79.0421 89.0021 79.2745 89.1047 79.507C89.2073 79.7394 89.3098 79.9719 89.4466 80.2509L90.8487 72.3471H92.0798L89.9938 84.1562L85.9586 77.0429C85.856 76.8569 85.7534 76.6709 85.6508 76.4385C85.5482 76.2525 85.4798 76.02 85.4115 75.7876L84.0094 83.7378H82.7441Z" fill="#636466"/>
<path d="M96.3172 73.876L94.5731 83.7324H93.2395L94.9835 73.876H92.7949L93.0685 72.2953H98.7109L98.4373 73.876H96.3172Z" fill="#636466"/>
<path d="M97.6953 81.4122L98.858 80.7148C98.858 81.2262 98.9948 81.5982 99.2 81.8771C99.4051 82.1561 99.7471 82.2956 100.157 82.2956C100.568 82.2956 100.876 82.1561 101.183 81.8307C101.457 81.5052 101.662 81.0868 101.765 80.6219C101.867 79.971 101.594 79.3665 100.876 78.8086C100.773 78.7156 100.705 78.6692 100.636 78.6227C99.8497 78.0183 99.3367 77.4604 99.1316 76.9489C98.9264 76.4375 98.8922 75.8331 98.9948 75.1357C99.1658 74.2059 99.5077 73.462 100.089 72.8576C100.636 72.2532 101.286 71.9742 102.004 71.9742C102.62 71.9742 103.098 72.1602 103.44 72.4857C103.782 72.8111 103.987 73.276 104.022 73.8804L102.859 74.6243C102.756 74.2524 102.62 74.0199 102.449 73.8339C102.278 73.6945 102.072 73.6015 101.833 73.6015C101.491 73.6015 101.183 73.741 100.91 73.9734C100.67 74.2059 100.499 74.5778 100.397 74.9962C100.26 75.6936 100.636 76.3445 101.457 76.9024C101.525 76.9489 101.56 76.9954 101.594 76.9954C102.312 77.5068 102.791 78.0183 102.996 78.5297C103.201 79.0411 103.269 79.6455 103.133 80.3894C102.962 81.4587 102.551 82.3421 101.936 82.993C101.354 83.6439 100.636 83.9228 99.7813 83.9228C99.0974 83.9228 98.5502 83.6904 98.1741 83.2719C97.8663 82.9 97.6953 82.2491 97.6953 81.4122Z" fill="#636466"/>
<path d="M107.502 83.7308L109.52 72.3401H110.853L108.836 83.7308H107.502Z" fill="#636466"/>
<path d="M110.744 83.7378L112.83 71.8822L116.797 78.8561C116.899 79.0421 117.002 79.2745 117.105 79.507C117.207 79.7394 117.31 79.9719 117.447 80.2509L118.849 72.3471H120.08L117.96 84.1562L113.924 77.0429C113.822 76.8569 113.719 76.6709 113.617 76.4385C113.514 76.2525 113.446 76.02 113.377 75.7876L111.975 83.7378H110.744Z" fill="#636466"/>
<path d="M124.33 73.876L122.586 83.7324H121.252L122.996 73.876H120.842L121.115 72.2953H126.792L126.518 73.876H124.33Z" fill="#636466"/>
<path d="M125.771 83.7308L127.789 72.3401H132.337L132.064 73.9208H128.815L128.302 76.7569H131.516L131.243 78.3841H127.994L127.345 82.057H130.559L130.285 83.7308H125.771Z" fill="#636466"/>
<path d="M134.013 78.6166L133.124 83.7308H131.893L133.91 72.3401H135.757C136.304 72.3401 136.714 72.3866 136.988 72.4796C137.261 72.5726 137.501 72.7585 137.672 72.991C137.877 73.2699 138.014 73.5954 138.082 74.0603C138.151 74.4788 138.116 74.9902 138.048 75.5016C137.877 76.4314 137.603 77.1288 137.193 77.6402C136.783 78.1517 136.27 78.4771 135.62 78.5701L137.535 83.7772H136.03L134.218 78.6631H134.013V78.6166ZM134.321 77.1753H134.56C135.278 77.1753 135.757 77.0823 136.03 76.8499C136.304 76.6174 136.475 76.199 136.577 75.6411C136.68 75.0367 136.646 74.5717 136.441 74.2928C136.236 74.0603 135.791 73.9208 135.141 73.9208H134.902L134.321 77.1753Z" fill="#636466"/>
<path d="M138.25 83.7314L140.268 72.3407H144.816L144.542 73.875H141.293L140.781 76.711H144.029L143.756 78.3382H140.507L139.549 83.6849H138.25V83.7314Z" fill="#636466"/>
<path d="M149.27 83.7378L148.859 80.8088H145.611L144.14 83.7378H142.738L148.791 71.8822L150.672 83.7378H149.27ZM146.363 79.228H148.654L148.278 76.6244C148.244 76.4385 148.244 76.2525 148.244 76.0665C148.21 75.8341 148.21 75.6016 148.21 75.3226C148.107 75.5551 148.039 75.8341 147.936 76.02C147.868 76.206 147.765 76.4385 147.697 76.6244L146.363 79.228Z" fill="#636466"/>
<path d="M159.323 75.0944C159.015 74.6295 158.673 74.304 158.297 74.1181C157.921 73.8856 157.511 73.7926 157.032 73.7926C156.143 73.7926 155.322 74.2111 154.638 75.0014C153.92 75.7918 153.476 76.8146 153.236 78.1164C153.031 79.3252 153.099 80.3481 153.51 81.1384C153.92 81.9288 154.536 82.3473 155.356 82.3473C155.835 82.3473 156.314 82.2543 156.793 81.9753C157.271 81.7428 157.75 81.3709 158.229 80.906L157.853 82.9981C157.442 83.3701 156.998 83.649 156.553 83.7885C156.109 83.9745 155.63 84.0675 155.151 84.0675C154.536 84.0675 153.989 83.928 153.476 83.649C152.997 83.3701 152.621 82.9517 152.313 82.3937C152.005 81.8358 151.8 81.2314 151.732 80.4875C151.629 79.7437 151.663 78.9533 151.834 78.1164C151.971 77.2796 152.21 76.4892 152.552 75.7453C152.894 75.0014 153.305 74.3505 153.818 73.7926C154.33 73.2347 154.878 72.8163 155.425 72.5373C156.006 72.2584 156.587 72.1189 157.203 72.1189C157.682 72.1189 158.126 72.2119 158.537 72.3979C158.947 72.5838 159.289 72.9093 159.665 73.2812L159.323 75.0944Z" fill="#636466"/>
<path d="M159.412 83.7308L161.43 72.3401H165.978L165.704 73.9208H162.49L161.977 76.7569H165.226L164.952 78.3841H161.737L161.088 82.057H164.336L164.029 83.7308H159.412Z" fill="#636466"/>
<path d="M135.23 62.393H126.1L138.821 0H147.951L135.23 62.393Z" fill="#636466"/>
<path d="M130.477 1.94249C129.827 0.78018 128.869 0.175781 127.536 0.175781H77.3011L74.8048 12.4033H83.9352H120.491L117.824 25.4677H81.3021V25.4212H72.1717L64.5801 62.6152H73.7105L78.8058 37.6488H119.91C121.175 37.6488 122.406 37.0444 123.535 35.882C124.663 34.6732 125.415 33.232 125.757 31.4653L130.853 6.49876C131.229 4.63906 131.092 3.1513 130.477 1.94249Z" fill="#636466"/>
<path d="M59.2752 58.4845C58.7623 60.9486 57.1209 62.6688 55.2401 62.6688H8.08324C6.81797 62.6688 5.86047 62.0644 5.21074 60.9021C4.59521 59.6933 4.45842 58.252 4.80038 56.4853L16.2904 0.182861H25.4208L15.1619 50.4413H51.752L62.011 0.182861H71.1414L59.2752 58.4845Z" fill="#636466"/>
<path d="M163.655 0.101196L175.247 31.3907L150.934 62.6336L163.655 0.101196Z" fill="#2B8B4B"/>
<path d="M155.554 0.101196L167.112 31.3907L142.799 62.6336L155.554 0.101196Z" fill="#D9782D"/>
</svg>
