<svg width="106" height="51" viewBox="0 0 106 51" fill="none" xmlns="http://www.w3.org/2000/svg">
<path d="M0.837077 43.377H1.61671L0.878111 47.5334C0.775528 48.1471 0.796046 48.6213 0.939662 48.9282C1.08328 49.235 1.37051 49.4024 1.78084 49.4024C2.19118 49.4024 2.51944 49.2629 2.78616 48.9282C3.05288 48.6213 3.23753 48.1471 3.34011 47.5334L4.07871 43.377H4.87886L4.11974 47.6171C3.95561 48.5377 3.66837 49.235 3.25804 49.6814C2.84771 50.1556 2.29376 50.3788 1.61671 50.3788C0.939662 50.3788 0.467779 50.1556 0.221579 49.6814C-0.0246207 49.235 -0.0656529 48.5377 0.0984803 47.6171L0.837077 43.377Z" fill="#636466"/>
<path d="M4.75391 50.2427L6.00542 43.1293L8.38535 47.3136C8.4469 47.4252 8.50845 47.5647 8.57 47.7042C8.63155 47.8436 8.6931 47.9831 8.75465 48.1505L9.59584 43.4082H10.3344L9.08292 50.4937L6.64144 46.2257C6.57989 46.1141 6.51834 46.0025 6.45679 45.863C6.39524 45.7515 6.3542 45.612 6.31317 45.4725L5.47199 50.2427H4.75391Z" fill="#636466"/>
<path d="M10.2715 50.2387L11.482 43.4043H12.2821L11.0716 50.2387H10.2715Z" fill="#636466"/>
<path d="M12.2246 50.2387L13.4351 43.4043H16.1843L16.0202 44.3527H14.0711L13.7634 46.0544H15.7124L15.5483 47.0307H13.6197L13.0453 50.2387H12.2246Z" fill="#636466"/>
<path d="M15.8359 50.2387L17.0464 43.4043H17.8466L16.6361 50.2387H15.8359Z" fill="#636466"/>
<path d="M17.7656 50.2387L18.9761 43.4043H21.7048L21.5407 44.3527H19.6121L19.3044 46.0544H21.2535L21.0688 47.0307H19.1197L18.7299 49.2345H20.679L20.4943 50.2387H17.7656Z" fill="#636466"/>
<path d="M21.4355 50.2387L22.646 43.4043H23.7129C24.4105 43.4043 24.9029 43.4322 25.1696 43.5438C25.4363 43.6554 25.662 43.7948 25.8261 44.0459C26.0518 44.3527 26.2159 44.7433 26.2775 45.2175C26.339 45.6917 26.3185 46.2218 26.2159 46.8355C26.1133 47.4492 25.9492 47.9792 25.703 48.4534C25.4773 48.9276 25.1901 49.3182 24.8618 49.625C24.6156 49.8482 24.3284 50.0156 24.0412 50.1272C23.7539 50.2108 23.3231 50.2666 22.7281 50.2666H22.5229H21.4355V50.2387ZM22.3998 49.2066H23.0769C23.4462 49.2066 23.7334 49.1787 23.9181 49.095C24.1027 49.0392 24.2874 48.8997 24.4515 48.7603C24.6772 48.5371 24.8618 48.2581 25.0054 47.9234C25.1491 47.5887 25.2722 47.1981 25.3542 46.7797C25.4363 46.3333 25.4568 45.9707 25.4158 45.6359C25.3747 45.3012 25.2927 45.0222 25.1491 44.7991C25.0465 44.6317 24.8823 44.5201 24.7182 44.4643C24.5336 44.4085 24.2463 44.3527 23.836 44.3527H23.5488H23.2615L22.3998 49.2066Z" fill="#636466"/>
<path d="M29.8658 47.1702L29.3324 50.2387H28.5938L29.8042 43.4043H31.0147C31.3635 43.4043 31.6302 43.4322 31.7943 43.488C31.9585 43.5438 32.0816 43.6275 32.1842 43.7669C32.3073 43.9343 32.3893 44.1296 32.4304 44.4085C32.4714 44.6875 32.4714 44.9665 32.4098 45.3012C32.3483 45.636 32.2457 45.9149 32.1226 46.1939C31.979 46.4728 31.8354 46.6681 31.6507 46.8355C31.5071 46.947 31.343 47.0586 31.1583 47.1144C30.9737 47.1702 30.707 47.1981 30.3582 47.1981H30.194H29.8658V47.1702ZM30.0709 46.2497H30.2761C30.7275 46.2497 31.0352 46.1939 31.1994 46.0544C31.3635 45.9149 31.4866 45.6917 31.5481 45.357C31.6097 44.9944 31.5687 44.7433 31.4456 44.5759C31.3225 44.4364 31.0352 44.3527 30.6249 44.3527H30.4197L30.0709 46.2497Z" fill="#636466"/>
<path d="M35.1081 50.2427L34.8619 48.4852H32.9129L32.0306 50.2427H31.1895L34.8004 43.1293L35.9288 50.2427H35.1081ZM33.3642 47.5368H34.7388L34.5131 45.9746C34.4926 45.863 34.4926 45.7515 34.4721 45.6399C34.4721 45.5004 34.4516 45.3609 34.4516 45.1935C34.4106 45.333 34.349 45.5004 34.2875 45.612C34.2464 45.7236 34.1849 45.863 34.1233 45.9746L33.3642 47.5368Z" fill="#636466"/>
<path d="M37.0666 50.2387L37.6205 47.1144L36.6152 43.4043H37.4564L38.0719 45.7196C38.0719 45.7754 38.1129 45.8591 38.1129 45.9428C38.1335 46.0544 38.154 46.1381 38.1745 46.2497C38.236 46.1381 38.2771 46.0265 38.3386 45.9428C38.3797 45.8312 38.4412 45.7475 38.4822 45.6917L39.9389 43.4043H40.7391L38.4002 47.1144L37.8462 50.2387H37.0666Z" fill="#636466"/>
<path d="M44.676 46.8407C44.676 46.7849 44.676 46.6455 44.717 46.3944C44.7376 46.1991 44.7581 46.0318 44.7581 45.8923C44.717 46.0597 44.6555 46.1991 44.5939 46.3665C44.5324 46.506 44.4503 46.6734 44.3683 46.8407L42.4397 50.4951L41.8037 46.7849C41.7832 46.6455 41.7626 46.4781 41.7421 46.3386C41.7216 46.1991 41.7216 46.0597 41.7216 45.9202C41.6806 46.0597 41.6601 46.227 41.619 46.3665C41.578 46.5339 41.537 46.7013 41.4754 46.8686L40.3675 50.244H39.6289L42.0499 43.1027L42.7269 47.4266C42.7474 47.4823 42.7474 47.6218 42.768 47.7613C42.7885 47.9287 42.809 48.1239 42.8295 48.3471C42.9116 48.1518 43.0347 47.9008 43.1783 47.5939C43.2193 47.5102 43.2398 47.4544 43.2604 47.3987L45.4351 43.0748L45.3531 50.2161H44.6145L44.676 46.8407Z" fill="#636466"/>
<path d="M46.0176 50.2387L47.2281 43.4043H49.9773L49.7926 44.3249H47.8641L47.5563 46.0265H49.5054L49.3413 47.0028H47.3922L47.0024 49.2066H48.9515L48.7668 50.2108H46.0176V50.2387Z" fill="#636466"/>
<path d="M49.6426 50.2427L50.8941 43.1293L53.274 47.3136C53.3356 47.4252 53.3971 47.5647 53.4587 47.7042C53.5202 47.8436 53.5818 47.9831 53.6638 48.1505L54.505 43.4082H55.2436L53.9921 50.4937L51.5711 46.2257C51.5096 46.1141 51.448 46.0025 51.3865 45.863C51.3249 45.7515 51.2839 45.612 51.2429 45.4725L50.4017 50.2427H49.6426Z" fill="#636466"/>
<path d="M57.791 44.3254L56.7446 50.2393H55.9445L56.9908 44.3254H55.6777L55.8419 43.377H59.2271L59.063 44.3254H57.791Z" fill="#636466"/>
<path d="M58.6094 48.8473L59.3069 48.4288C59.3069 48.7357 59.389 48.9588 59.5121 49.1262C59.6352 49.2936 59.8404 49.3773 60.0866 49.3773C60.3328 49.3773 60.5174 49.2936 60.7021 49.0983C60.8662 48.9031 60.9893 48.652 61.0509 48.373C61.1124 47.9825 60.9483 47.6198 60.5174 47.2851C60.4559 47.2293 60.4148 47.2014 60.3738 47.1735C59.9019 46.8109 59.5942 46.4761 59.4711 46.1693C59.348 45.8624 59.3275 45.4998 59.389 45.0814C59.4916 44.5234 59.6968 44.0771 60.0455 43.7145C60.3738 43.3518 60.7636 43.1844 61.1945 43.1844C61.5638 43.1844 61.851 43.296 62.0562 43.4913C62.2613 43.6866 62.3844 43.9655 62.405 44.3282L61.7074 44.7745C61.6458 44.5513 61.5638 44.4119 61.4612 44.3003C61.3586 44.2166 61.2355 44.1608 61.0919 44.1608C60.8867 44.1608 60.7021 44.2445 60.5379 44.384C60.3943 44.5234 60.2917 44.7466 60.2302 44.9977C60.1481 45.4161 60.3738 45.8066 60.8662 46.1414C60.9072 46.1693 60.9278 46.1972 60.9483 46.1972C61.3791 46.504 61.6664 46.8109 61.7895 47.1177C61.9126 47.4246 61.9536 47.7872 61.8715 48.2336C61.7689 48.8752 61.5227 49.4052 61.1534 49.7957C60.8047 50.1863 60.3738 50.3536 59.8609 50.3536C59.4506 50.3536 59.1223 50.2142 58.8966 49.9631C58.712 49.7399 58.6094 49.3494 58.6094 48.8473Z" fill="#636466"/>
<path d="M64.5 50.2387L65.7105 43.4043H66.5106L65.3002 50.2387H64.5Z" fill="#636466"/>
<path d="M66.4453 50.2427L67.6968 43.1293L70.0768 47.3136C70.1383 47.4252 70.1999 47.5647 70.2614 47.7042C70.323 47.8436 70.3845 47.9831 70.4666 48.1505L71.3078 43.4082H72.0464L70.7743 50.4937L68.3534 46.2257C68.2918 46.1141 68.2303 46.0025 68.1687 45.863C68.1072 45.7515 68.0661 45.612 68.0251 45.4725L67.1839 50.2427H66.4453Z" fill="#636466"/>
<path d="M74.5907 44.3254L73.5444 50.2393H72.7442L73.7906 44.3254H72.498L72.6622 43.377H76.0679L75.9038 44.3254H74.5907Z" fill="#636466"/>
<path d="M75.459 50.2387L76.6695 43.4043H79.3982L79.234 44.3527H77.285L76.9772 46.0544H78.9058L78.7417 47.0307H76.7926L76.4028 49.2345H78.3313L78.1672 50.2387H75.459Z" fill="#636466"/>
<path d="M80.4009 47.1702L79.8675 50.2387H79.1289L80.3394 43.4043H81.4473C81.7756 43.4043 82.0218 43.4322 82.1859 43.488C82.35 43.5438 82.4936 43.6554 82.5962 43.7948C82.7193 43.9622 82.8014 44.1575 82.8424 44.4364C82.8835 44.6875 82.8629 44.9944 82.8219 45.3012C82.7193 45.8591 82.5552 46.2775 82.309 46.5844C82.0628 46.8913 81.755 47.0865 81.3652 47.1423L82.5142 50.2666H81.6114L80.524 47.1981H80.4009V47.1702ZM80.5856 46.3054H80.7292C81.1601 46.3054 81.4473 46.2497 81.6114 46.1102C81.7756 45.9707 81.8781 45.7196 81.9397 45.3849C82.0012 45.0222 81.9807 44.7433 81.8576 44.5759C81.7345 44.4364 81.4678 44.3527 81.078 44.3527H80.9344L80.5856 46.3054Z" fill="#636466"/>
<path d="M82.9453 50.2387L84.1558 43.4043H86.8845L86.7204 44.3249H84.7713L84.4635 46.0265H86.4126L86.2485 47.0028H84.2994L83.7249 50.2108H82.9453V50.2387Z" fill="#636466"/>
<path d="M89.5574 50.2427L89.3111 48.4852H87.3621L86.4799 50.2427H85.6387L89.2701 43.1293L90.3985 50.2427H89.5574ZM87.8134 47.5368H89.1881L88.9624 45.9746C88.9418 45.863 88.9419 45.7515 88.9419 45.6399C88.9213 45.5004 88.9213 45.3609 88.9213 45.1935C88.8598 45.333 88.8188 45.5004 88.7572 45.612C88.7162 45.7236 88.6546 45.863 88.6136 45.9746L87.8134 47.5368Z" fill="#636466"/>
<path d="M95.5854 45.0566C95.4008 44.7776 95.1956 44.5823 94.9699 44.4708C94.7442 44.3313 94.498 44.2755 94.2108 44.2755C93.6774 44.2755 93.185 44.5265 92.7746 45.0008C92.3438 45.475 92.0771 46.0887 91.9335 46.8698C91.8104 47.5951 91.8514 48.2088 92.0976 48.683C92.3438 49.1572 92.7131 49.4083 93.2055 49.4083C93.4927 49.4083 93.78 49.3525 94.0672 49.1851C94.3544 49.0456 94.6416 48.8225 94.9289 48.5435L94.7032 49.7988C94.457 50.022 94.1903 50.1894 93.9236 50.273C93.6568 50.3846 93.3696 50.4404 93.0824 50.4404C92.7131 50.4404 92.3848 50.3567 92.0771 50.1894C91.7898 50.022 91.5642 49.7709 91.3795 49.4362C91.1949 49.1014 91.0717 48.7388 91.0307 48.2925C90.9692 47.8461 90.9897 47.3719 91.0923 46.8698C91.1743 46.3677 91.318 45.8934 91.5231 45.4471C91.7283 45.0008 91.9745 44.6102 92.2822 44.2755C92.59 43.9407 92.9182 43.6897 93.2465 43.5223C93.5953 43.3549 93.9441 43.2712 94.3134 43.2712C94.6006 43.2712 94.8673 43.327 95.1135 43.4386C95.3597 43.5502 95.5649 43.7455 95.7906 43.9686L95.5854 45.0566Z" fill="#636466"/>
<path d="M95.6445 50.2387L96.855 43.4043H99.5837L99.4196 44.3527H97.491L97.1833 46.0544H99.1324L98.9682 47.0307H97.0397L96.6499 49.2345H98.5989L98.4143 50.2387H95.6445Z" fill="#636466"/>
<path d="M81.1342 37.436H75.6562L83.2884 0H88.7664L81.1342 37.436Z" fill="#636466"/>
<path d="M78.2797 1.16514C77.8899 0.467744 77.3154 0.105103 76.5153 0.105103H46.3763L44.8786 7.44166H50.3566H72.2889L70.6886 15.2803H48.7768V15.2524H43.2988L38.7441 37.569H44.2221L47.2791 22.589H71.9401C72.6992 22.589 73.4378 22.2264 74.1148 21.529C74.7919 20.8037 75.2433 19.9389 75.4484 18.8789L78.5054 3.89891C78.7311 2.78308 78.649 1.89042 78.2797 1.16514Z" fill="#636466"/>
<path d="M35.5625 35.0908C35.2547 36.5692 34.2699 37.6014 33.1415 37.6014H4.84904C4.08993 37.6014 3.51546 37.2387 3.12564 36.5413C2.75634 35.8161 2.67427 34.9513 2.87944 33.8913L9.77304 0.109619H15.251L9.09599 30.2648H31.0488L37.2038 0.109619H42.6817L35.5625 35.0908Z" fill="#636466"/>
<path d="M98.1927 0.0603027L105.148 18.8341L90.5605 37.58L98.1927 0.0603027Z" fill="#2B8B4B"/>
<path d="M93.3304 0.0603027L100.265 18.8341L85.6777 37.58L93.3304 0.0603027Z" fill="#D9782D"/>
</svg>
