<svg width="24" height="24" viewBox="0 0 24 24" fill="none" xmlns="http://www.w3.org/2000/svg">
<path fill-rule="evenodd" clip-rule="evenodd" d="M11.4127 2.87019C9.80469 2.9516 8.54178 3.17933 7.14074 3.64052C5.42068 4.20673 3.84134 5.04805 2.42474 6.15279C1.73884 6.68768 0.957879 7.41389 0.873351 7.59541C0.679479 8.01173 1.00672 8.48312 1.46099 8.44193C1.53798 8.43495 1.63634 8.41095 1.67961 8.38856C1.72286 8.36619 1.9163 8.20009 2.1095 8.01944C3.23889 6.96327 4.26285 6.24411 5.55674 5.59827C7.28536 4.73547 9.04295 4.24952 10.9687 4.10194C11.7168 4.04461 12.9132 4.07271 13.6927 4.16593C16.4877 4.5001 19.1894 5.67711 21.2887 7.47514C21.4273 7.59385 21.6988 7.83877 21.892 8.01944C22.0852 8.20009 22.2786 8.36619 22.3219 8.38856C22.3651 8.41095 22.4635 8.43495 22.5405 8.44193C22.9947 8.48312 23.322 8.01173 23.1281 7.59541C23.0436 7.41389 22.2626 6.68768 21.5767 6.15279C19.1905 4.29188 16.312 3.16649 13.2967 2.91562C12.8827 2.88116 11.7401 2.85361 11.4127 2.87019ZM11.1127 7.16458C9.42899 7.30251 7.83009 7.80111 6.36393 8.64541C5.56151 9.10748 4.81077 9.67832 4.12658 10.3466C3.95783 10.5115 3.91266 10.5714 3.87758 10.6773C3.73653 11.1026 4.05254 11.502 4.50153 11.466C4.69463 11.4505 4.76351 11.4077 5.08192 11.1056C5.99087 10.2431 6.91456 9.63526 8.05768 9.14729C10.2842 8.19685 12.7647 8.07824 15.071 8.81199C16.5339 9.2774 17.8522 10.0653 18.9906 11.1544C19.2578 11.4102 19.368 11.4707 19.5675 11.4715C19.8028 11.4723 19.9876 11.3635 20.0992 11.1585C20.1755 11.0183 20.1907 10.8254 20.1379 10.668C20.0627 10.4441 19.1816 9.65588 18.4191 9.13037C16.2749 7.65262 13.6794 6.95429 11.1127 7.16458ZM11.6287 11.3181C10.9164 11.3888 10.4895 11.4795 9.92474 11.6806C9.47747 11.8398 8.96169 12.0965 8.59274 12.3434C8.09267 12.6782 7.51518 13.1922 7.42818 13.38C7.36525 13.5159 7.36835 13.7576 7.43466 13.8856C7.54955 14.1073 7.79634 14.2491 8.02624 14.2253C8.20454 14.2069 8.28153 14.1611 8.54795 13.9146C9.23015 13.2836 9.96484 12.8829 10.8469 12.6608C11.593 12.473 12.5044 12.473 13.2506 12.6608C14.142 12.8853 14.9061 13.306 15.5887 13.9483C15.8392 14.184 15.9056 14.218 16.1167 14.2191C16.306 14.2201 16.4108 14.1798 16.5352 14.0582C16.7025 13.8946 16.759 13.6765 16.6931 13.4497C16.6575 13.3273 16.6264 13.2847 16.4327 13.0933C15.4919 12.1637 14.2454 11.5555 12.8887 11.3641C12.6253 11.3269 11.8316 11.298 11.6287 11.3181ZM11.7205 15.6975C10.4823 15.8174 9.46041 16.8091 9.29034 18.0557C9.17303 18.9157 9.49768 19.8228 10.1335 20.4115C11.4637 21.643 13.604 21.2723 14.429 19.6675C14.7208 19.0999 14.8089 18.4056 14.6651 17.808C14.5012 17.1267 14.0809 16.5161 13.5202 16.1446C13.1446 15.8957 12.7052 15.7405 12.2505 15.6963C11.9876 15.6708 11.9969 15.6708 11.7205 15.6975ZM11.6167 16.9338C11.3498 17.0039 11.139 17.13 10.9204 17.3502C10.6352 17.6375 10.5054 17.9173 10.4753 18.3094C10.418 19.055 10.9396 19.7502 11.6767 19.9109C12.4629 20.0823 13.2676 19.5934 13.4791 18.816C13.5364 18.6052 13.5364 18.2066 13.479 18.0134C13.3221 17.4846 12.8923 17.0642 12.3737 16.9323C12.1937 16.8866 11.7935 16.8874 11.6167 16.9338Z" fill="white"/>
</svg>
