<svg width="24" height="24" viewBox="0 0 24 24" fill="none" xmlns="http://www.w3.org/2000/svg">
<path fill-rule="evenodd" clip-rule="evenodd" d="M1.16325 0.873142C0.857801 1.01755 0.729785 1.36814 0.873065 1.66795C0.955601 1.84068 22.1797 23.0611 22.3432 23.1345C22.5604 23.2318 22.859 23.1729 23.0198 23.001C23.1796 22.8301 23.2276 22.5534 23.1338 22.344C23.0956 22.2587 21.7995 20.9499 16.9854 16.1351C12.9867 12.1356 10.8975 10.03 10.9204 10.0219C10.9396 10.0152 11.1208 9.99847 11.3232 9.98481C12.6296 9.89654 13.897 10.0587 15.1552 10.475C16.6196 10.9595 17.8299 11.6843 18.9547 12.7504C19.1047 12.8925 19.2616 13.0274 19.3033 13.0501C19.4069 13.1063 19.7341 13.1073 19.8352 13.0517C20.1193 12.8954 20.2443 12.5461 20.118 12.2613C20.047 12.1013 19.5111 11.5906 18.9592 11.1573C17.6368 10.119 16.0526 9.37421 14.3992 9.01358C13.0019 8.70878 11.5273 8.67732 10.0604 8.92097L9.81345 8.96198L8.57836 7.72706C7.89904 7.04784 7.34325 6.48578 7.34325 6.47805C7.34325 6.46308 7.75941 6.33077 8.1809 6.21173C9.001 5.9801 9.97051 5.81078 10.9192 5.73353C11.3676 5.69702 12.6307 5.69702 13.0792 5.73353C15.2621 5.91117 17.218 6.51247 19.1392 7.59653C20.1262 8.1534 21.0044 8.81333 21.9898 9.73853C22.2856 10.0162 22.3964 10.08 22.5832 10.08C22.9052 10.08 23.1836 9.80203 23.183 9.48125C23.1826 9.26057 23.1123 9.14772 22.7702 8.81918C20.3615 6.50585 17.2251 5.01194 13.9312 4.60913C13.2294 4.52328 12.8376 4.50146 11.9992 4.50146C10.9388 4.50146 10.2233 4.56069 9.28636 4.72608C8.37038 4.88777 7.20283 5.20757 6.5291 5.48131L6.38932 5.53812L4.0883 3.2346C2.23859 1.3829 1.76371 0.919846 1.66725 0.873742C1.50662 0.797014 1.32477 0.796798 1.16325 0.873142ZM3.22307 7.27531C3.0791 7.30049 3.02027 7.3361 2.64859 7.62324C1.73332 8.33033 0.968345 9.02121 0.871769 9.22795C0.650897 9.7008 1.10707 10.2101 1.60372 10.0451C1.69943 10.0133 1.78216 9.95215 1.97627 9.76963C2.31602 9.45017 2.69846 9.12158 3.08894 8.81359C3.72477 8.31206 3.77805 8.26711 3.83243 8.18633C4.0108 7.92122 3.93352 7.55407 3.65894 7.36217C3.54875 7.28515 3.37029 7.24961 3.22307 7.27531ZM6.30347 10.3293C5.84742 10.4992 4.12814 11.8522 3.92263 12.2029C3.84832 12.3296 3.82274 12.5224 3.86126 12.6649C3.92755 12.9102 4.1817 13.1042 4.43599 13.1036C4.63859 13.1032 4.75391 13.0337 5.13914 12.6801C5.64417 12.2165 6.18503 11.7951 6.61554 11.5298C6.90635 11.3507 6.95334 11.3088 7.02251 11.1674C7.21288 10.7783 6.95994 10.3363 6.52898 10.3049C6.4485 10.299 6.3587 10.3087 6.30347 10.3293ZM9.66055 13.408C9.57398 13.4326 9.1294 13.6479 8.94962 13.7523C8.31076 14.1231 7.55985 14.7388 7.43702 14.9926C7.33442 15.2045 7.37327 15.4788 7.5305 15.6528C7.69538 15.8353 7.91018 15.8979 8.14123 15.8307C8.24947 15.7993 8.31436 15.7553 8.48687 15.5967C8.96286 15.1589 9.33664 14.8991 9.85168 14.6478C10.2242 14.4661 10.3404 14.3695 10.4013 14.1908C10.4981 13.9067 10.3995 13.635 10.1394 13.4691C10.0644 13.4213 10.0071 13.4065 9.87542 13.4014C9.78292 13.3977 9.68622 13.4007 9.66055 13.408ZM11.6632 17.3308C10.9741 17.4096 10.2585 17.8203 9.82804 18.3839C8.91844 19.575 9.13943 21.2856 10.3209 22.1986C11.5533 23.1511 13.3212 22.896 14.2201 21.636C15.12 20.3744 14.7978 18.6187 13.5112 17.7739C12.9415 17.3998 12.3338 17.2541 11.6632 17.3308ZM11.8312 18.53C11.6243 18.5496 11.4942 18.5878 11.2983 18.6864C11.1078 18.7824 10.8403 19.0251 10.712 19.2185C10.5236 19.5023 10.433 19.9165 10.4854 20.2542C10.5419 20.6187 10.6706 20.8702 10.9365 21.1358C11.5216 21.7204 12.4768 21.7204 13.062 21.1358C13.3249 20.8732 13.4542 20.6231 13.5119 20.2655C13.5663 19.9287 13.4743 19.5013 13.2865 19.2185C13.2373 19.1444 13.1218 19.0128 13.0299 18.926C12.7029 18.6176 12.3031 18.4855 11.8312 18.53Z" fill="white"/>
</svg>
