<svg width="78" height="13" viewBox="0 0 78 13" fill="none" xmlns="http://www.w3.org/2000/svg">
<rect opacity="0.35" x="51.2891" y="0.5" width="23.8953" height="12" rx="3.8" stroke="#080A0B"/>
<path opacity="0.4" d="M76.6797 4.78125V8.85672C77.481 8.51155 78.0022 7.70859 78.0022 6.81899C78.0022 5.92938 77.481 5.12642 76.6797 4.78125Z" fill="#080A0B"/>
<rect x="52.7812" y="2" width="20.9121" height="9" rx="2.5" fill="#080A0B"/>
<path fill-rule="evenodd" clip-rule="evenodd" d="M35.1213 3.103C37.598 3.10311 39.98 4.02519 41.775 5.67867C41.9102 5.80632 42.1262 5.80471 42.2593 5.67506L43.5514 4.41159C43.6188 4.34583 43.6564 4.25675 43.6558 4.16407C43.6553 4.07139 43.6166 3.98275 43.5484 3.91776C38.8372 -0.45696 31.4047 -0.45696 26.6935 3.91776C26.6253 3.9827 26.5866 4.07132 26.5859 4.164C26.5853 4.25668 26.6228 4.34578 26.6902 4.41159L27.9826 5.67506C28.1157 5.80491 28.3319 5.80652 28.467 5.67867C30.2621 4.02508 32.6444 3.10299 35.1213 3.103ZM35.118 7.32328C36.4696 7.32319 37.773 7.83493 38.7749 8.75906C38.9105 8.89021 39.1239 8.88737 39.256 8.75265L40.5379 7.43334C40.6054 7.36414 40.6429 7.27027 40.6419 7.17271C40.6409 7.07516 40.6016 6.98208 40.5327 6.91429C37.4817 4.02344 32.7569 4.02344 29.7059 6.91429C29.6369 6.98208 29.5976 7.07521 29.5967 7.17279C29.5958 7.27037 29.6334 7.36424 29.7011 7.43334L30.9826 8.75265C31.1147 8.88737 31.3281 8.89021 31.4637 8.75906C32.4649 7.83554 33.7673 7.32385 35.118 7.32328ZM37.6319 10.1168C37.6338 10.2222 37.5969 10.3237 37.5298 10.3976L35.3623 12.8523C35.2988 12.9244 35.2121 12.965 35.1217 12.965C35.0314 12.965 34.9447 12.9244 34.8812 12.8523L32.7133 10.3976C32.6463 10.3237 32.6095 10.2221 32.6114 10.1167C32.6134 10.0114 32.6541 9.91163 32.7238 9.84101C34.108 8.52712 36.1354 8.52712 37.5197 9.84101C37.5894 9.91168 37.6299 10.0115 37.6319 10.1168Z" fill="#080A0B"/>
<path fill-rule="evenodd" clip-rule="evenodd" d="M19.1196 1.68138C19.1196 1.04834 18.644 0.535156 18.0574 0.535156H16.9952C16.4086 0.535156 15.933 1.04834 15.933 1.68138V11.6153C15.933 12.2484 16.4086 12.7616 16.9952 12.7616H18.0574C18.644 12.7616 19.1196 12.2484 19.1196 11.6153V1.68138ZM11.7166 2.98044H12.7788C13.3654 2.98044 13.841 3.50594 13.841 4.15417V11.5878C13.841 12.2361 13.3654 12.7616 12.7788 12.7616H11.7166C11.13 12.7616 10.6544 12.2361 10.6544 11.5878V4.15417C10.6544 3.50594 11.13 2.98044 11.7166 2.98044ZM7.40298 5.62949H6.34078C5.75414 5.62949 5.27858 6.16168 5.27858 6.81817V11.5729C5.27858 12.2294 5.75414 12.7616 6.34078 12.7616H7.40298C7.98962 12.7616 8.46518 12.2294 8.46518 11.5729V6.81817C8.46518 6.16168 7.98962 5.62949 7.40298 5.62949ZM2.1244 8.07478H1.0622C0.475563 8.07478 0 8.59937 0 9.24648V11.5899C0 12.237 0.475563 12.7616 1.0622 12.7616H2.1244C2.71104 12.7616 3.1866 12.237 3.1866 11.5899V9.24648C3.1866 8.59937 2.71104 8.07478 2.1244 8.07478Z" fill="#080A0B"/>
</svg>
